<?xml version="1.0" encoding="utf-8"?>
<!DOCTYPE svg PUBLIC "-//W3C//DTD SVG 1.1//EN" "http://www.w3.org/Graphics/SVG/1.1/DTD/svg11.dtd">
<svg xmlns="http://www.w3.org/2000/svg" xmlns:xlink="http://www.w3.org/1999/xlink" version="1.1" baseProfile="full" width="274" height="274" viewBox="0 0 274.00 274.00" enable-background="new 0 0 274.00 274.00" xml:space="preserve">
	<rect x="0" y="6.10352e-005" fill="#A80B0B" fill-opacity="1" stroke-width="0.2" stroke-linejoin="round" width="274" height="274"/>
	<g>
		<path fill="#FFFFFF" fill-opacity="1" stroke-linejoin="round" d="M 158.965,241.759L 158.965,251.623L 156.043,251.623L 156.043,226.05L 163.098,226.05C 165.846,226.05 167.975,226.707 169.486,228.022C 170.997,229.337 171.752,231.191 171.752,233.585C 171.752,235.982 170.907,237.944 169.218,239.47C 167.528,240.996 165.247,241.759 162.373,241.759L 158.965,241.759 Z M 158.965,228.607L 158.965,239.202L 162.099,239.202C 164.17,239.202 165.748,238.724 166.834,237.769C 167.921,236.814 168.464,235.465 168.464,233.722C 168.464,230.312 166.468,228.607 162.476,228.607L 158.965,228.607 Z "/>
		<path fill="#FFFFFF" fill-opacity="1" stroke-linejoin="round" d="M 195.133,251.623L 191.566,251.623L 187.285,244.402C 186.874,243.729 186.475,243.156 186.089,242.684C 185.702,242.212 185.306,241.826 184.898,241.525C 184.491,241.225 184.055,241.006 183.588,240.869C 183.122,240.732 182.594,240.663 182.004,240.663L 179.424,240.663L 179.424,251.623L 176.501,251.623L 176.501,226.05L 184.282,226.05C 185.424,226.05 186.476,226.19 187.439,226.469C 188.401,226.749 189.238,227.173 189.947,227.742C 190.657,228.311 191.212,229.02 191.611,229.869C 192.011,230.717 192.211,231.711 192.211,232.848C 192.211,233.739 192.073,234.555 191.797,235.297C 191.521,236.039 191.129,236.701 190.621,237.281C 190.113,237.861 189.501,238.356 188.786,238.765C 188.07,239.174 187.265,239.493 186.371,239.721L 186.371,239.79C 186.816,239.98 187.204,240.197 187.533,240.441C 187.862,240.684 188.175,240.973 188.472,241.308C 188.769,241.643 189.064,242.022 189.357,242.444C 189.65,242.867 189.975,243.358 190.333,243.917L 195.133,251.623 Z M 179.424,228.607L 179.424,238.106L 183.591,238.106C 184.356,238.106 185.065,237.99 185.718,237.758C 186.37,237.526 186.933,237.193 187.407,236.762C 187.881,236.33 188.252,235.801 188.52,235.175C 188.789,234.549 188.923,233.846 188.923,233.065C 188.923,231.665 188.469,230.572 187.561,229.786C 186.654,229 185.342,228.607 183.625,228.607L 179.424,228.607 Z "/>
		<path fill="#FFFFFF" fill-opacity="1" stroke-linejoin="round" d="M 212.304,251.623L 198.422,251.623L 198.422,226.05L 211.574,226.05L 211.574,228.607L 201.344,228.607L 201.344,237.375L 210.843,237.375L 210.843,239.933L 201.344,239.933L 201.344,249.066L 212.304,249.066L 212.304,251.623 Z "/>
		<path fill="#FFFFFF" fill-opacity="1" stroke-linejoin="round" d="M 215.958,250.407L 215.958,246.874C 216.365,247.27 216.852,247.626 217.419,247.944C 217.986,248.262 218.583,248.529 219.211,248.746C 219.839,248.963 220.47,249.132 221.104,249.251C 221.737,249.371 222.322,249.431 222.859,249.431C 224.712,249.431 226.095,249.08 227.009,248.378C 227.922,247.676 228.379,246.666 228.379,245.35C 228.379,244.665 228.226,244.067 227.919,243.557C 227.613,243.047 227.191,242.583 226.652,242.164C 226.114,241.746 225.476,241.343 224.74,240.957C 224.003,240.571 223.209,240.167 222.357,239.744C 221.458,239.291 220.62,238.835 219.842,238.374C 219.064,237.914 218.386,237.406 217.81,236.85C 217.233,236.294 216.78,235.665 216.451,234.961C 216.122,234.257 215.958,233.431 215.958,232.483C 215.958,231.322 216.217,230.313 216.737,229.455C 217.256,228.597 217.938,227.89 218.783,227.334C 219.628,226.779 220.591,226.365 221.672,226.093C 222.752,225.821 223.854,225.685 224.977,225.685C 227.534,225.685 229.399,226.021 230.571,226.695L 230.571,230.069C 229.052,228.851 227.102,228.242 224.72,228.242C 224.061,228.242 223.403,228.312 222.745,228.453C 222.086,228.594 221.5,228.824 220.987,229.144C 220.473,229.463 220.054,229.874 219.731,230.377C 219.407,230.879 219.246,231.492 219.246,232.215C 219.246,232.866 219.368,233.428 219.614,233.902C 219.859,234.375 220.222,234.807 220.701,235.197C 221.181,235.588 221.765,235.966 222.454,236.333C 223.142,236.701 223.936,237.103 224.834,237.541C 225.759,237.99 226.634,238.463 227.46,238.959C 228.286,239.456 229.011,240.007 229.635,240.612C 230.259,241.217 230.754,241.886 231.119,242.618C 231.484,243.351 231.667,244.191 231.667,245.139C 231.667,246.394 231.417,247.457 230.916,248.327C 230.416,249.196 229.741,249.903 228.893,250.447C 228.044,250.991 227.065,251.384 225.956,251.626C 224.846,251.868 223.677,251.989 222.448,251.989C 222.037,251.989 221.531,251.953 220.929,251.883C 220.328,251.813 219.714,251.71 219.086,251.575C 218.458,251.44 217.864,251.272 217.305,251.072C 216.745,250.873 216.296,250.651 215.958,250.407 Z "/>
		<path fill="#FFFFFF" fill-opacity="1" stroke-linejoin="round" d="M 235.32,250.407L 235.32,246.874C 235.727,247.27 236.215,247.626 236.782,247.944C 237.349,248.262 237.946,248.529 238.574,248.746C 239.202,248.963 239.833,249.132 240.466,249.251C 241.1,249.371 241.685,249.431 242.222,249.431C 244.075,249.431 245.458,249.08 246.371,248.378C 247.285,247.676 247.741,246.666 247.741,245.35C 247.741,244.665 247.588,244.067 247.282,243.557C 246.976,243.047 246.553,242.583 246.015,242.164C 245.476,241.746 244.839,241.343 244.102,240.957C 243.366,240.571 242.572,240.167 241.719,239.744C 240.821,239.291 239.983,238.835 239.205,238.374C 238.426,237.914 237.749,237.406 237.173,236.85C 236.596,236.294 236.143,235.665 235.814,234.961C 235.485,234.257 235.32,233.431 235.32,232.483C 235.32,231.322 235.58,230.313 236.099,229.455C 236.619,228.597 237.301,227.89 238.146,227.334C 238.991,226.779 239.953,226.365 241.034,226.093C 242.115,225.821 243.217,225.685 244.339,225.685C 246.897,225.685 248.761,226.021 249.934,226.695L 249.934,230.069C 248.415,228.851 246.465,228.242 244.082,228.242C 243.424,228.242 242.766,228.312 242.107,228.453C 241.449,228.594 240.863,228.824 240.349,229.144C 239.835,229.463 239.417,229.874 239.093,230.377C 238.77,230.879 238.608,231.492 238.608,232.215C 238.608,232.866 238.731,233.428 238.976,233.902C 239.222,234.375 239.584,234.807 240.064,235.197C 240.543,235.588 241.127,235.966 241.816,236.333C 242.505,236.701 243.299,237.103 244.197,237.541C 245.121,237.99 245.997,238.463 246.822,238.959C 247.648,239.456 248.373,240.007 248.997,240.612C 249.621,241.217 250.116,241.886 250.482,242.618C 250.847,243.351 251.03,244.191 251.03,245.139C 251.03,246.394 250.779,247.457 250.279,248.327C 249.778,249.196 249.104,249.903 248.255,250.447C 247.407,250.991 246.428,251.384 245.318,251.626C 244.209,251.868 243.04,251.989 241.811,251.989C 241.4,251.989 240.893,251.953 240.292,251.883C 239.691,251.813 239.076,251.71 238.448,251.575C 237.82,251.44 237.227,251.272 236.667,251.072C 236.108,250.873 235.659,250.651 235.32,250.407 Z "/>
	</g>
	<g>
		<path fill="#FFFFFF" fill-opacity="1" stroke-linejoin="round" d="M 69.6418,211.437L 63.7965,211.437L 63.7965,201.207L 53.2019,201.207L 53.2019,211.437L 47.3565,211.437L 47.3565,185.863L 53.2019,185.863L 53.2019,196.093L 63.7965,196.093L 63.7965,185.863L 69.6418,185.863L 69.6418,211.437 Z "/>
		<path fill="#FFFFFF" fill-opacity="1" stroke-linejoin="round" d="M 97.7726,211.437L 91.4934,211.437L 89.8494,206.322L 80.4363,206.322L 78.8094,211.437L 72.5645,211.437L 81.8634,185.863L 88.6849,185.863L 97.7726,211.437 Z M 88.3138,201.207L 85.6309,192.73C 85.4216,192.087 85.277,191.32 85.1971,190.43L 85.0544,190.43C 85.0087,191.18 84.8584,191.922 84.6034,192.656L 81.8691,201.207L 88.3138,201.207 Z "/>
		<path fill="#FFFFFF" fill-opacity="1" stroke-linejoin="round" d="M 118.414,210.455C 116.568,211.353 114.157,211.802 111.181,211.802C 107.296,211.802 104.242,210.654 102.02,208.36C 99.7971,206.065 98.6859,203.009 98.6859,199.192C 98.6859,195.124 99.936,191.825 102.436,189.294C 104.937,186.763 108.181,185.498 112.169,185.498C 114.639,185.498 116.72,185.818 118.414,186.457L 118.414,192.074C 116.747,191.1 114.848,190.613 112.717,190.613C 110.377,190.613 108.488,191.347 107.051,192.816C 105.615,194.285 104.897,196.275 104.897,198.787C 104.897,201.196 105.574,203.115 106.929,204.544C 108.284,205.973 110.108,206.687 112.403,206.687C 114.591,206.687 116.595,206.2 118.414,205.226L 118.414,210.455 Z "/>
		<path fill="#FFFFFF" fill-opacity="1" stroke-linejoin="round" d="M 143.987,211.437L 136.783,211.437L 129.402,200.328C 129.262,200.115 129.037,199.645 128.729,198.918L 128.643,198.918L 128.643,211.437L 122.798,211.437L 122.798,185.863L 128.643,185.863L 128.643,197.953L 128.729,197.953C 128.873,197.622 129.109,197.147 129.437,196.526L 136.447,185.863L 143.257,185.863L 134.397,198.062L 143.987,211.437 Z "/>
		<path fill="#FFFFFF" fill-opacity="1" stroke-linejoin="round" d="M 161.889,211.437L 146.545,211.437L 146.545,185.863L 161.158,185.863L 161.158,190.613L 152.39,190.613L 152.39,196.093L 160.793,196.093L 160.793,200.842L 152.39,200.842L 152.39,206.687L 161.889,206.687L 161.889,211.437 Z "/>
		<path fill="#FFFFFF" fill-opacity="1" stroke-linejoin="round" d="M 187.137,211.437L 180.521,211.437L 176.679,204.809C 176.393,204.303 176.118,203.853 175.854,203.459C 175.59,203.065 175.322,202.728 175.052,202.446C 174.782,202.164 174.5,201.948 174.207,201.798C 173.914,201.648 173.596,201.573 173.254,201.573L 171.753,201.573L 171.753,211.437L 165.907,211.437L 165.907,185.863L 174.955,185.863C 181.101,185.863 184.174,188.171 184.174,192.787C 184.174,193.674 184.04,194.493 183.772,195.245C 183.503,195.996 183.125,196.674 182.636,197.277C 182.147,197.88 181.556,198.401 180.863,198.838C 180.17,199.276 179.4,199.618 178.551,199.866L 178.551,199.94C 178.924,200.058 179.286,200.251 179.636,200.519C 179.986,200.788 180.324,201.102 180.649,201.461C 180.974,201.821 181.286,202.207 181.585,202.62C 181.884,203.033 182.155,203.437 182.399,203.833L 187.137,211.437 Z M 171.753,190.247L 171.753,197.189L 174.099,197.189C 175.259,197.189 176.19,196.84 176.89,196.144C 177.605,195.436 177.963,194.561 177.963,193.518C 177.963,191.337 176.707,190.247 174.196,190.247L 171.753,190.247 Z "/>
		<path fill="#FFFFFF" fill-opacity="1" stroke-linejoin="round" d="M 189.654,211.437L 189.654,185.863L 199.004,185.863C 201.87,185.863 204.072,186.385 205.612,187.427C 207.151,188.47 207.921,189.939 207.921,191.834C 207.921,193.208 207.453,194.41 206.516,195.439C 205.58,196.468 204.383,197.185 202.926,197.588L 202.926,197.662C 204.775,197.887 206.253,198.559 207.358,199.68C 208.464,200.801 209.017,202.166 209.017,203.776C 209.017,206.128 208.172,207.992 206.482,209.37C 204.792,210.748 202.484,211.437 199.558,211.437L 189.654,211.437 Z M 195.499,190.247L 195.499,196.093L 197.971,196.093C 199.132,196.093 200.045,195.815 200.711,195.259C 201.377,194.703 201.71,193.939 201.71,192.964C 201.71,191.153 200.342,190.247 197.606,190.247L 195.499,190.247 Z M 195.499,200.477L 195.499,207.053L 198.587,207.053C 199.904,207.053 200.936,206.751 201.684,206.148C 202.432,205.545 202.806,204.722 202.806,203.679C 202.806,202.682 202.439,201.899 201.704,201.33C 200.97,200.761 199.942,200.477 198.622,200.477L 195.499,200.477 Z "/>
		<path fill="#FFFFFF" fill-opacity="1" stroke-linejoin="round" d="M 235.321,211.437L 229.041,211.437L 227.397,206.322L 217.984,206.322L 216.358,211.437L 210.113,211.437L 219.412,185.863L 226.233,185.863L 235.321,211.437 Z M 225.862,201.207L 223.179,192.73C 222.97,192.087 222.825,191.32 222.745,190.43L 222.602,190.43C 222.557,191.18 222.407,191.922 222.152,192.656L 219.417,201.207L 225.862,201.207 Z "/>
		<path fill="#FFFFFF" fill-opacity="1" stroke-linejoin="round" d="M 252.491,185.863L 244.089,202.343L 244.089,211.437L 238.243,211.437L 238.243,202.446L 230.206,185.863L 236.788,185.863L 240.881,195.402C 240.949,195.581 241.143,196.277 241.463,197.491L 241.537,197.491C 241.693,196.635 241.881,195.963 242.102,195.476L 246.389,185.863L 252.491,185.863 Z "/>
	</g>
</svg>
