<?xml version="1.0" encoding="utf-8"?>
<!DOCTYPE svg PUBLIC "-//W3C//DTD SVG 1.1//EN" "http://www.w3.org/Graphics/SVG/1.1/DTD/svg11.dtd">
<svg xmlns="http://www.w3.org/2000/svg" xmlns:xlink="http://www.w3.org/1999/xlink" version="1.1" baseProfile="full" width="315.673" height="26.4907" viewBox="0 0 315.67 26.49" enable-background="new 0 0 315.67 26.49" xml:space="preserve">
	<g>
		<path fill="#FFFFFF" fill-opacity="1" stroke-linejoin="round" d="M 223.609,16.2614L 223.609,26.1254L 220.686,26.1254L 220.686,0.552002L 227.742,0.552002C 230.489,0.552002 232.619,1.20941 234.129,2.52423C 235.64,3.83905 236.396,5.69333 236.396,8.08701C 236.396,10.4845 235.551,12.4463 233.861,13.9723C 232.171,15.4984 229.89,16.2614 227.017,16.2614L 223.609,16.2614 Z M 223.609,3.10934L 223.609,13.704L 226.743,13.704C 228.813,13.704 230.391,13.2264 231.478,12.2712C 232.564,11.316 233.108,9.96695 233.108,8.224C 233.108,4.81424 231.112,3.10934 227.12,3.10934L 223.609,3.10934 Z "/>
		<path fill="#FFFFFF" fill-opacity="1" stroke-linejoin="round" d="M 259.777,26.1254L 256.209,26.1254L 251.928,18.9043C 251.517,18.2307 251.118,17.658 250.732,17.1861C 250.346,16.7142 249.949,16.3279 249.542,16.0273C 249.135,15.7267 248.698,15.5078 248.232,15.3708C 247.766,15.2339 247.238,15.1653 246.648,15.1653L 244.068,15.1653L 244.068,26.1254L 241.145,26.1254L 241.145,0.552002L 248.925,0.552002C 250.067,0.552002 251.119,0.691864 252.082,0.971558C 253.045,1.25128 253.881,1.6756 254.591,2.24454C 255.301,2.81348 255.855,3.52225 256.255,4.37088C 256.655,5.21951 256.854,6.21277 256.854,7.35065C 256.854,8.24115 256.716,9.05743 256.44,9.7995C 256.165,10.5416 255.773,11.2028 255.265,11.7832C 254.757,12.3635 254.145,12.8582 253.429,13.2673C 252.714,13.6764 251.909,13.9951 251.015,14.2235L 251.015,14.292C 251.46,14.4822 251.847,14.6992 252.176,14.9427C 252.506,15.1863 252.819,15.4755 253.115,15.8104C 253.412,16.1453 253.707,16.5239 254,16.9464C 254.293,17.3688 254.619,17.8597 254.976,18.4191L 259.777,26.1254 Z M 244.068,3.10934L 244.068,12.608L 248.235,12.608C 249,12.608 249.708,12.4919 250.361,12.2598C 251.014,12.0277 251.577,11.6956 252.051,11.2637C 252.525,10.8318 252.896,10.3028 253.164,9.67679C 253.432,9.05078 253.566,8.34769 253.566,7.56757C 253.566,6.16711 253.112,5.07397 252.205,4.28812C 251.297,3.50226 249.985,3.10934 248.269,3.10934L 244.068,3.10934 Z "/>
		<path fill="#FFFFFF" fill-opacity="1" stroke-linejoin="round" d="M 276.948,26.1254L 263.065,26.1254L 263.065,0.552002L 276.217,0.552002L 276.217,3.10934L 265.988,3.10934L 265.988,11.8773L 275.486,11.8773L 275.486,14.4347L 265.988,14.4347L 265.988,23.568L 276.948,23.568L 276.948,26.1254 Z "/>
		<path fill="#FFFFFF" fill-opacity="1" stroke-linejoin="round" d="M 280.601,24.9095L 280.601,21.376C 281.008,21.7718 281.495,22.1286 282.062,22.4463C 282.629,22.7641 283.227,23.0314 283.855,23.2484C 284.483,23.4653 285.113,23.6337 285.747,23.7535C 286.381,23.8734 286.966,23.9333 287.502,23.9333C 289.356,23.9333 290.739,23.5823 291.652,22.8802C 292.566,22.178 293.022,21.1686 293.022,19.8519C 293.022,19.1669 292.869,18.5694 292.563,18.0595C 292.256,17.5495 291.834,17.0853 291.296,16.6667C 290.757,16.248 290.12,15.8456 289.383,15.4593C 288.647,15.0731 287.852,14.6687 287,14.2463C 286.102,13.7935 285.264,13.3368 284.485,12.8763C 283.707,12.4158 283.03,11.9078 282.453,11.3522C 281.877,10.7966 281.424,10.1667 281.095,9.46271C 280.766,8.7587 280.601,7.93289 280.601,6.98529C 280.601,5.82462 280.861,4.81519 281.38,3.95703C 281.9,3.09888 282.582,2.392 283.427,1.8364C 284.271,1.28076 285.234,0.866913 286.315,0.594818C 287.396,0.322723 288.497,0.186676 289.62,0.186676C 292.177,0.186676 294.042,0.523468 295.214,1.19705L 295.214,4.57068C 293.696,3.35291 291.745,2.74402 289.363,2.74402C 288.705,2.74402 288.047,2.81442 287.388,2.95523C 286.73,3.09601 286.144,3.32626 285.63,3.64594C 285.116,3.96561 284.698,4.37659 284.374,4.87894C 284.051,5.38126 283.889,5.99396 283.889,6.71701C 283.889,7.36777 284.012,7.93002 284.257,8.40384C 284.503,8.87762 284.865,9.30954 285.345,9.69962C 285.824,10.0897 286.408,10.4684 287.097,10.8356C 287.786,11.2028 288.579,11.6053 289.477,12.0429C 290.402,12.4919 291.277,12.9648 292.103,13.4614C 292.929,13.958 293.654,14.5089 294.278,15.114C 294.902,15.7191 295.397,16.3879 295.762,17.1205C 296.128,17.853 296.31,18.6931 296.31,19.6407C 296.31,20.8965 296.06,21.9592 295.56,22.8288C 295.059,23.6984 294.385,24.4052 293.536,24.9494C 292.687,25.4936 291.708,25.8866 290.599,26.1282C 289.49,26.3699 288.32,26.4907 287.091,26.4907C 286.68,26.4907 286.174,26.4555 285.573,26.3851C 284.972,26.3147 284.357,26.2119 283.729,26.0768C 283.101,25.9417 282.508,25.7743 281.948,25.5745C 281.389,25.3747 280.94,25.153 280.601,24.9095 Z "/>
		<path fill="#FFFFFF" fill-opacity="1" stroke-linejoin="round" d="M 299.964,24.9095L 299.964,21.376C 300.371,21.7718 300.858,22.1286 301.425,22.4463C 301.992,22.7641 302.589,23.0314 303.217,23.2484C 303.845,23.4653 304.476,23.6337 305.11,23.7535C 305.743,23.8734 306.328,23.9333 306.865,23.9333C 308.718,23.9333 310.102,23.5823 311.015,22.8802C 311.928,22.178 312.385,21.1686 312.385,19.8519C 312.385,19.1669 312.232,18.5694 311.925,18.0595C 311.619,17.5495 311.197,17.0853 310.658,16.6667C 310.12,16.248 309.482,15.8456 308.746,15.4593C 308.01,15.0731 307.215,14.6687 306.363,14.2463C 305.465,13.7935 304.626,13.3368 303.848,12.8763C 303.07,12.4158 302.393,11.9078 301.816,11.3522C 301.239,10.7966 300.787,10.1667 300.457,9.46271C 300.128,8.7587 299.964,7.93289 299.964,6.98529C 299.964,5.82462 300.223,4.81519 300.743,3.95703C 301.262,3.09888 301.944,2.392 302.789,1.8364C 303.634,1.28076 304.597,0.866913 305.678,0.594818C 306.758,0.322723 307.86,0.186676 308.983,0.186676C 311.54,0.186676 313.405,0.523468 314.577,1.19705L 314.577,4.57068C 313.059,3.35291 311.108,2.74402 308.726,2.74402C 308.068,2.74402 307.409,2.81442 306.751,2.95523C 306.092,3.09601 305.506,3.32626 304.993,3.64594C 304.479,3.96561 304.06,4.37659 303.737,4.87894C 303.413,5.38126 303.252,5.99396 303.252,6.71701C 303.252,7.36777 303.374,7.93002 303.62,8.40384C 303.865,8.87762 304.228,9.30954 304.707,9.69962C 305.187,10.0897 305.771,10.4684 306.46,10.8356C 307.149,11.2028 307.942,11.6053 308.84,12.0429C 309.765,12.4919 310.64,12.9648 311.466,13.4614C 312.292,13.958 313.017,14.5089 313.641,15.114C 314.265,15.7191 314.76,16.3879 315.125,17.1205C 315.49,17.853 315.673,18.6931 315.673,19.6407C 315.673,20.8965 315.423,21.9592 314.922,22.8288C 314.422,23.6984 313.747,24.4052 312.899,24.9494C 312.05,25.4936 311.071,25.8866 309.962,26.1282C 308.852,26.3699 307.683,26.4907 306.454,26.4907C 306.043,26.4907 305.537,26.4555 304.936,26.3851C 304.334,26.3147 303.72,26.2119 303.092,26.0768C 302.464,25.9417 301.87,25.7743 301.311,25.5745C 300.751,25.3747 300.302,25.153 299.964,24.9095 Z "/>
	</g>
	<g>
		<path fill="#FFFFFF" fill-opacity="1" stroke-linejoin="round" d="M 22.2853,25.9387L 16.44,25.9387L 16.44,15.7093L 5.84534,15.7093L 5.84534,25.9387L 0,25.9387L 0,0.365326L 5.84534,0.365326L 5.84534,10.5947L 16.44,10.5947L 16.44,0.365326L 22.2853,0.365326L 22.2853,25.9387 Z "/>
		<path fill="#FFFFFF" fill-opacity="1" stroke-linejoin="round" d="M 50.416,25.9387L 44.1368,25.9387L 42.4928,20.824L 33.0798,20.824L 31.4529,25.9387L 25.208,25.9387L 34.5069,0.365326L 41.3283,0.365326L 50.416,25.9387 Z M 40.9573,15.7093L 38.2744,7.23245C 38.0651,6.58932 37.9204,5.82248 37.8405,4.93201L 37.6978,4.93201C 37.6522,5.6817 37.5019,6.42377 37.2469,7.15823L 34.5126,15.7093L 40.9573,15.7093 Z "/>
		<path fill="#FFFFFF" fill-opacity="1" stroke-linejoin="round" d="M 71.0573,24.9568C 69.2116,25.8549 66.8008,26.304 63.8249,26.304C 59.9394,26.304 56.8854,25.1566 54.663,22.8619C 52.4406,20.5671 51.3293,17.5113 51.3293,13.6943C 51.3293,9.62616 52.5794,6.32672 55.0797,3.79602C 57.58,1.26535 60.8242,0 64.8124,0C 67.2822,0 69.3639,0.319641 71.0573,0.958984L 71.0573,6.57599C 69.3905,5.60178 67.4915,5.11465 65.3604,5.11465C 63.02,5.11465 61.1315,5.84912 59.6949,7.31808C 58.2583,8.78702 57.54,10.7773 57.54,13.289C 57.54,15.6979 58.2174,17.6169 59.5721,19.0459C 60.9269,20.4749 62.7517,21.1893 65.0464,21.1893C 67.2346,21.1893 69.2383,20.7022 71.0573,19.728L 71.0573,24.9568 Z "/>
		<path fill="#FFFFFF" fill-opacity="1" stroke-linejoin="round" d="M 96.6307,25.9387L 89.4268,25.9387L 82.0459,14.8303C 81.9051,14.6171 81.6805,14.1472 81.3723,13.4203L 81.2867,13.4203L 81.2867,25.9387L 75.4413,25.9387L 75.4413,0.365326L 81.2867,0.365326L 81.2867,12.4556L 81.3723,12.4556C 81.5169,12.1245 81.7528,11.6488 82.0801,11.0285L 89.09,0.365326L 95.9,0.365326L 87.0407,12.564L 96.6307,25.9387 Z "/>
		<path fill="#FFFFFF" fill-opacity="1" stroke-linejoin="round" d="M 114.532,25.9387L 99.188,25.9387L 99.188,0.365326L 113.801,0.365326L 113.801,5.11465L 105.033,5.11465L 105.033,10.5947L 113.436,10.5947L 113.436,15.344L 105.033,15.344L 105.033,21.1893L 114.532,21.1893L 114.532,25.9387 Z "/>
		<path fill="#FFFFFF" fill-opacity="1" stroke-linejoin="round" d="M 139.78,25.9387L 133.164,25.9387L 129.322,19.3113C 129.037,18.8051 128.762,18.3551 128.497,17.9613C 128.233,17.5674 127.966,17.2296 127.695,16.948C 127.425,16.6664 127.144,16.4505 126.851,16.3001C 126.558,16.1498 126.24,16.0747 125.897,16.0747L 124.396,16.0747L 124.396,25.9387L 118.551,25.9387L 118.551,0.365326L 127.598,0.365326C 133.744,0.365326 136.817,2.6734 136.817,7.28955C 136.817,8.17624 136.683,8.99536 136.415,9.74698C 136.147,10.4986 135.768,11.176 135.279,11.7791C 134.79,12.3823 134.199,12.9027 133.507,13.3404C 132.814,13.778 132.043,14.1205 131.195,14.3679L 131.195,14.4421C 131.568,14.5601 131.929,14.7532 132.279,15.0215C 132.629,15.2898 132.967,15.6037 133.292,15.9633C 133.618,16.323 133.93,16.7092 134.229,17.1221C 134.527,17.535 134.799,17.9394 135.042,18.3352L 139.78,25.9387 Z M 124.396,4.74933L 124.396,11.6907L 126.742,11.6907C 127.903,11.6907 128.833,11.3425 129.534,10.646C 130.249,9.9382 130.607,9.06293 130.607,8.0202C 130.607,5.83963 129.351,4.74933 126.839,4.74933L 124.396,4.74933 Z "/>
		<path fill="#FFFFFF" fill-opacity="1" stroke-linejoin="round" d="M 142.297,25.9387L 142.297,0.365326L 151.648,0.365326C 154.513,0.365326 156.716,0.886688 158.255,1.92941C 159.794,2.97214 160.564,4.44107 160.564,6.33624C 160.564,7.71005 160.096,8.91165 159.16,9.94107C 158.224,10.9705 157.027,11.6869 155.569,12.0902L 155.569,12.1645C 157.419,12.389 158.896,13.0616 160.002,14.1823C 161.107,15.3031 161.66,16.6683 161.66,18.2781C 161.66,20.6299 160.815,22.4946 159.126,23.8723C 157.436,25.2499 155.128,25.9387 152.201,25.9387L 142.297,25.9387 Z M 148.143,4.74933L 148.143,10.5947L 150.614,10.5947C 151.775,10.5947 152.688,10.3169 153.354,9.76123C 154.02,9.20563 154.353,8.4407 154.353,7.46649C 154.353,5.65506 152.985,4.74933 150.249,4.74933L 148.143,4.74933 Z M 148.143,14.9787L 148.143,21.5547L 151.231,21.5547C 152.548,21.5547 153.58,21.2531 154.328,20.6499C 155.076,20.0467 155.449,19.2238 155.449,18.181C 155.449,17.184 155.082,16.401 154.348,15.8321C 153.613,15.2631 152.586,14.9787 151.265,14.9787L 148.143,14.9787 Z "/>
		<path fill="#FFFFFF" fill-opacity="1" stroke-linejoin="round" d="M 187.964,25.9387L 181.685,25.9387L 180.041,20.824L 170.628,20.824L 169.001,25.9387L 162.756,25.9387L 172.055,0.365326L 178.876,0.365326L 187.964,25.9387 Z M 178.505,15.7093L 175.822,7.23245C 175.613,6.58932 175.469,5.82248 175.389,4.93201L 175.246,4.93201C 175.2,5.6817 175.05,6.42377 174.795,7.15823L 172.061,15.7093L 178.505,15.7093 Z "/>
		<path fill="#FFFFFF" fill-opacity="1" stroke-linejoin="round" d="M 205.135,0.365326L 196.732,16.8453L 196.732,25.9387L 190.887,25.9387L 190.887,16.948L 182.849,0.365326L 189.431,0.365326L 193.524,9.90396C 193.592,10.0828 193.787,10.7792 194.106,11.9932L 194.18,11.9932C 194.336,11.137 194.525,10.4653 194.746,9.97815L 199.033,0.365326L 205.135,0.365326 Z "/>
	</g>
</svg>
