<?xml version="1.0" encoding="utf-8"?>
<!DOCTYPE svg PUBLIC "-//W3C//DTD SVG 1.1//EN" "http://www.w3.org/Graphics/SVG/1.1/DTD/svg11.dtd">
<svg xmlns="http://www.w3.org/2000/svg" xmlns:xlink="http://www.w3.org/1999/xlink" version="1.1" baseProfile="full" width="378.212" height="67.75" viewBox="0 0 378.21 67.75" enable-background="new 0 0 378.21 67.75" xml:space="preserve">
	<rect x="0" y="3.05176e-005" fill="#A80B0B" fill-opacity="1" stroke-width="0.2" stroke-linejoin="round" width="378.212" height="67.75"/>
	<g>
		<path fill="#FFFFFF" fill-opacity="1" stroke-linejoin="round" d="M 257.678,38.2592L 257.678,48.1232L 254.755,48.1232L 254.755,22.5499L 261.811,22.5499C 264.558,22.5499 266.687,23.2073 268.198,24.5221C 269.709,25.8369 270.464,27.6912 270.464,30.0849C 270.464,32.4824 269.62,34.4442 267.93,35.9702C 266.24,37.4962 263.959,38.2592 261.086,38.2592L 257.678,38.2592 Z M 257.678,25.1072L 257.678,35.7019L 260.812,35.7019C 262.882,35.7019 264.46,35.2243 265.547,34.2691C 266.633,33.3139 267.176,31.9648 267.176,30.2219C 267.176,26.8121 265.18,25.1072 261.188,25.1072L 257.678,25.1072 Z "/>
		<path fill="#FFFFFF" fill-opacity="1" stroke-linejoin="round" d="M 293.846,48.1232L 290.278,48.1232L 285.997,40.9022C 285.586,40.2286 285.187,39.6559 284.801,39.184C 284.415,38.7121 284.018,38.3258 283.611,38.0252C 283.204,37.7245 282.767,37.5057 282.301,37.3687C 281.835,37.2317 281.307,37.1632 280.717,37.1632L 278.136,37.1632L 278.136,48.1232L 275.214,48.1232L 275.214,22.5499L 282.994,22.5499C 284.136,22.5499 285.188,22.6897 286.151,22.9694C 287.114,23.2491 287.95,23.6735 288.66,24.2424C 289.37,24.8113 289.924,25.5201 290.324,26.3687C 290.723,27.2174 290.923,28.2106 290.923,29.3485C 290.923,30.239 290.785,31.0553 290.509,31.7974C 290.233,32.5395 289.841,33.2007 289.333,33.781C 288.825,34.3614 288.214,34.8561 287.498,35.2652C 286.783,35.6743 285.978,35.993 285.084,36.2213L 285.084,36.2898C 285.529,36.4801 285.916,36.697 286.245,36.9406C 286.574,37.1841 286.887,37.4734 287.184,37.8083C 287.481,38.1432 287.776,38.5218 288.069,38.9442C 288.362,39.3666 288.687,39.8575 289.045,40.417L 293.846,48.1232 Z M 278.136,25.1072L 278.136,34.6059L 282.304,34.6059C 283.068,34.6059 283.777,34.4898 284.43,34.2577C 285.083,34.0255 285.646,33.6935 286.12,33.2616C 286.593,32.8297 286.964,32.3007 287.233,31.6747C 287.501,31.0486 287.635,30.3456 287.635,29.5654C 287.635,28.165 287.181,27.0718 286.274,26.286C 285.366,25.5001 284.054,25.1072 282.338,25.1072L 278.136,25.1072 Z "/>
		<path fill="#FFFFFF" fill-opacity="1" stroke-linejoin="round" d="M 311.016,48.1232L 297.134,48.1232L 297.134,22.5499L 310.286,22.5499L 310.286,25.1072L 300.057,25.1072L 300.057,33.8752L 309.555,33.8752L 309.555,36.4326L 300.057,36.4326L 300.057,45.5659L 311.016,45.5659L 311.016,48.1232 Z "/>
		<path fill="#FFFFFF" fill-opacity="1" stroke-linejoin="round" d="M 314.67,46.9073L 314.67,43.3739C 315.077,43.7697 315.564,44.1264 316.131,44.4442C 316.698,44.762 317.296,45.0293 317.924,45.2462C 318.551,45.4631 319.182,45.6315 319.816,45.7514C 320.45,45.8713 321.035,45.9312 321.571,45.9312C 323.424,45.9312 324.808,45.5802 325.721,44.878C 326.634,44.1759 327.091,43.1665 327.091,41.8498C 327.091,41.1648 326.938,40.5673 326.632,40.0573C 326.325,39.5474 325.903,39.0831 325.364,38.6645C 324.826,38.2459 324.188,37.8434 323.452,37.4572C 322.716,37.0709 321.921,36.6666 321.069,36.2442C 320.171,35.7913 319.333,35.3347 318.554,34.8742C 317.776,34.4137 317.099,33.9057 316.522,33.35C 315.946,32.7944 315.493,32.1646 315.164,31.4606C 314.834,30.7566 314.67,29.9308 314.67,28.9832C 314.67,27.8225 314.93,26.813 315.449,25.9549C 315.968,25.0967 316.651,24.3899 317.495,23.8343C 318.34,23.2786 319.303,22.8648 320.384,22.5927C 321.465,22.3206 322.566,22.1845 323.689,22.1845C 326.246,22.1845 328.111,22.5213 329.283,23.1949L 329.283,26.5685C 327.765,25.3508 325.814,24.7419 323.432,24.7419C 322.774,24.7419 322.115,24.8123 321.457,24.9531C 320.799,25.0939 320.213,25.3241 319.699,25.6438C 319.185,25.9635 318.766,26.3745 318.443,26.8768C 318.12,27.3791 317.958,27.9918 317.958,28.7149C 317.958,29.3656 318.081,29.9279 318.326,30.4017C 318.571,30.8755 318.934,31.3074 319.413,31.6975C 319.893,32.0876 320.477,32.4662 321.166,32.8334C 321.855,33.2007 322.648,33.6031 323.546,34.0407C 324.471,34.4898 325.346,34.9626 326.172,35.4593C 326.998,35.9559 327.723,36.5067 328.347,37.1118C 328.971,37.7169 329.466,38.3857 329.831,39.1183C 330.196,39.8509 330.379,40.691 330.379,41.6385C 330.379,42.8944 330.129,43.9571 329.628,44.8267C 329.128,45.6962 328.453,46.4031 327.605,46.9473C 326.756,47.4915 325.777,47.8844 324.668,48.1261C 323.559,48.3677 322.389,48.4886 321.16,48.4886C 320.749,48.4886 320.243,48.4533 319.642,48.3829C 319.04,48.3126 318.426,48.2098 317.798,48.0747C 317.17,47.9396 316.576,47.7722 316.017,47.5724C 315.458,47.3726 315.008,47.1509 314.67,46.9073 Z "/>
		<path fill="#FFFFFF" fill-opacity="1" stroke-linejoin="round" d="M 334.033,46.9073L 334.033,43.3739C 334.44,43.7697 334.927,44.1264 335.494,44.4442C 336.061,44.762 336.658,45.0293 337.286,45.2462C 337.914,45.4631 338.545,45.6315 339.179,45.7514C 339.812,45.8713 340.397,45.9312 340.934,45.9312C 342.787,45.9312 344.171,45.5802 345.084,44.878C 345.997,44.1759 346.454,43.1665 346.454,41.8498C 346.454,41.1648 346.301,40.5673 345.994,40.0573C 345.688,39.5474 345.266,39.0831 344.727,38.6645C 344.189,38.2459 343.551,37.8434 342.815,37.4572C 342.078,37.0709 341.284,36.6666 340.432,36.2442C 339.533,35.7913 338.695,35.3347 337.917,34.8742C 337.139,34.4137 336.461,33.9057 335.885,33.35C 335.308,32.7944 334.855,32.1646 334.526,31.4606C 334.197,30.7566 334.033,29.9308 334.033,28.9832C 334.033,27.8225 334.292,26.813 334.812,25.9549C 335.331,25.0967 336.013,24.3899 336.858,23.8343C 337.703,23.2786 338.666,22.8648 339.747,22.5927C 340.827,22.3206 341.929,22.1845 343.052,22.1845C 345.609,22.1845 347.474,22.5213 348.646,23.1949L 348.646,26.5685C 347.127,25.3508 345.177,24.7419 342.795,24.7419C 342.136,24.7419 341.478,24.8123 340.82,24.9531C 340.161,25.0939 339.575,25.3241 339.062,25.6438C 338.548,25.9635 338.129,26.3745 337.806,26.8768C 337.482,27.3791 337.32,27.9918 337.32,28.7149C 337.32,29.3656 337.443,29.9279 337.689,30.4017C 337.934,30.8755 338.297,31.3074 338.776,31.6975C 339.256,32.0876 339.84,32.4662 340.529,32.8334C 341.217,33.2007 342.011,33.6031 342.909,34.0407C 343.834,34.4898 344.709,34.9626 345.535,35.4593C 346.361,35.9559 347.086,36.5067 347.71,37.1118C 348.334,37.7169 348.828,38.3857 349.194,39.1183C 349.559,39.8509 349.742,40.691 349.742,41.6385C 349.742,42.8944 349.492,43.9571 348.991,44.8267C 348.491,45.6962 347.816,46.4031 346.968,46.9473C 346.119,47.4915 345.14,47.8844 344.031,48.1261C 342.921,48.3677 341.752,48.4886 340.523,48.4886C 340.112,48.4886 339.606,48.4533 339.004,48.3829C 338.403,48.3126 337.789,48.2098 337.161,48.0747C 336.533,47.9396 335.939,47.7722 335.38,47.5724C 334.82,47.3726 334.371,47.1509 334.033,46.9073 Z "/>
	</g>
	<g>
		<path fill="#FFFFFF" fill-opacity="1" stroke-linejoin="round" d="M 56.3542,47.9365L 50.5088,47.9365L 50.5088,37.7072L 39.9142,37.7072L 39.9142,47.9365L 34.0688,47.9365L 34.0688,22.3632L 39.9142,22.3632L 39.9142,32.5925L 50.5088,32.5925L 50.5088,22.3632L 56.3542,22.3632L 56.3542,47.9365 Z "/>
		<path fill="#FFFFFF" fill-opacity="1" stroke-linejoin="round" d="M 84.4849,47.9365L 78.2057,47.9365L 76.5617,42.8219L 67.1487,42.8219L 65.5218,47.9365L 59.2769,47.9365L 68.5757,22.3632L 75.3972,22.3632L 84.4849,47.9365 Z M 75.0262,37.7072L 72.3432,29.2303C 72.1339,28.5872 71.9893,27.8203 71.9094,26.9299L 71.7667,26.9299C 71.721,27.6796 71.5707,28.4216 71.3157,29.1561L 68.5814,37.7072L 75.0262,37.7072 Z "/>
		<path fill="#FFFFFF" fill-opacity="1" stroke-linejoin="round" d="M 105.126,46.9547C 103.28,47.8528 100.87,48.3019 97.8937,48.3019C 94.0082,48.3019 90.9543,47.1545 88.7318,44.8597C 86.5094,42.565 85.3982,39.5091 85.3982,35.6921C 85.3982,31.624 86.6483,28.3246 89.1485,25.7939C 91.6488,23.2632 94.893,21.9979 98.8813,21.9979C 101.351,21.9979 103.433,22.3175 105.126,22.9568L 105.126,28.5739C 103.459,27.5996 101.56,27.1125 99.4292,27.1125C 97.0888,27.1125 95.2003,27.847 93.7637,29.3159C 92.3271,30.7849 91.6089,32.7752 91.6089,35.2869C 91.6089,37.6958 92.2862,39.6147 93.641,41.0437C 94.9958,42.4727 96.8206,43.1872 99.1153,43.1872C 101.303,43.1872 103.307,42.7001 105.126,41.7259L 105.126,46.9547 Z "/>
		<path fill="#FFFFFF" fill-opacity="1" stroke-linejoin="round" d="M 130.7,47.9365L 123.496,47.9365L 116.115,36.8281C 115.974,36.615 115.749,36.145 115.441,35.4182L 115.355,35.4182L 115.355,47.9365L 109.51,47.9365L 109.51,22.3632L 115.355,22.3632L 115.355,34.4534L 115.441,34.4534C 115.586,34.1223 115.822,33.6467 116.149,33.0264L 123.159,22.3632L 129.969,22.3632L 121.11,34.5619L 130.7,47.9365 Z "/>
		<path fill="#FFFFFF" fill-opacity="1" stroke-linejoin="round" d="M 148.601,47.9365L 133.257,47.9365L 133.257,22.3632L 147.87,22.3632L 147.87,27.1125L 139.102,27.1125L 139.102,32.5925L 147.505,32.5925L 147.505,37.3419L 139.102,37.3419L 139.102,43.1872L 148.601,43.1872L 148.601,47.9365 Z "/>
		<path fill="#FFFFFF" fill-opacity="1" stroke-linejoin="round" d="M 173.849,47.9365L 167.233,47.9365L 163.391,41.3091C 163.106,40.803 162.831,40.353 162.566,39.9591C 162.302,39.5652 162.034,39.2275 161.764,38.9459C 161.494,38.6643 161.213,38.4483 160.919,38.298C 160.626,38.1477 160.309,38.0725 159.966,38.0725L 158.465,38.0725L 158.465,47.9365L 152.62,47.9365L 152.62,22.3632L 161.667,22.3632C 167.813,22.3632 170.886,24.6713 170.886,29.2874C 170.886,30.1741 170.752,30.9932 170.484,31.7448C 170.216,32.4964 169.837,33.1738 169.348,33.777C 168.859,34.3802 168.268,34.9006 167.575,35.3382C 166.883,35.7759 166.112,36.1184 165.263,36.3657L 165.263,36.4399C 165.636,36.5579 165.998,36.751 166.348,37.0193C 166.698,37.2876 167.036,37.6016 167.361,37.9612C 167.687,38.3208 167.999,38.7071 168.298,39.12C 168.596,39.5329 168.867,39.9373 169.111,40.333L 173.849,47.9365 Z M 158.465,26.7472L 158.465,33.6885L 160.811,33.6885C 161.972,33.6885 162.902,33.3403 163.602,32.6439C 164.318,31.9361 164.676,31.0608 164.676,30.0181C 164.676,27.8375 163.42,26.7472 160.908,26.7472L 158.465,26.7472 Z "/>
		<path fill="#FFFFFF" fill-opacity="1" stroke-linejoin="round" d="M 176.366,47.9365L 176.366,22.3632L 185.716,22.3632C 188.582,22.3632 190.785,22.8846 192.324,23.9273C 193.863,24.97 194.633,26.4389 194.633,28.3341C 194.633,29.7079 194.165,30.9095 193.229,31.9389C 192.292,32.9683 191.096,33.6847 189.638,34.0881L 189.638,34.1623C 191.488,34.3868 192.965,35.0595 194.071,36.1802C 195.176,37.301 195.729,38.6662 195.729,40.2759C 195.729,42.6278 194.884,44.4925 193.194,45.8701C 191.505,47.2477 189.197,47.9365 186.27,47.9365L 176.366,47.9365 Z M 182.212,26.7472L 182.212,32.5925L 184.683,32.5925C 185.844,32.5925 186.757,32.3147 187.423,31.7591C 188.089,31.2035 188.422,30.4386 188.422,29.4644C 188.422,27.6529 187.054,26.7472 184.318,26.7472L 182.212,26.7472 Z M 182.212,36.9765L 182.212,43.5525L 185.3,43.5525C 186.617,43.5525 187.649,43.2509 188.397,42.6478C 189.144,42.0446 189.518,41.2216 189.518,40.1789C 189.518,39.1819 189.151,38.3989 188.417,37.8299C 187.682,37.261 186.655,36.9765 185.334,36.9765L 182.212,36.9765 Z "/>
		<path fill="#FFFFFF" fill-opacity="1" stroke-linejoin="round" d="M 222.033,47.9365L 215.754,47.9365L 214.11,42.8219L 204.697,42.8219L 203.07,47.9365L 196.825,47.9365L 206.124,22.3632L 212.945,22.3632L 222.033,47.9365 Z M 212.574,37.7072L 209.891,29.2303C 209.682,28.5872 209.537,27.8203 209.457,26.9299L 209.315,26.9299C 209.269,27.6796 209.119,28.4216 208.864,29.1561L 206.129,37.7072L 212.574,37.7072 Z "/>
		<path fill="#FFFFFF" fill-opacity="1" stroke-linejoin="round" d="M 239.204,22.3632L 230.801,38.8431L 230.801,47.9365L 224.956,47.9365L 224.956,38.9459L 216.918,22.3632L 223.5,22.3632L 227.593,31.9018C 227.661,32.0807 227.855,32.7771 228.175,33.9911L 228.249,33.9911C 228.405,33.1348 228.594,32.4631 228.814,31.976L 233.101,22.3632L 239.204,22.3632 Z "/>
	</g>
</svg>
