<?xml version="1.0" encoding="utf-8"?>
<!DOCTYPE svg PUBLIC "-//W3C//DTD SVG 1.1//EN" "http://www.w3.org/Graphics/SVG/1.1/DTD/svg11.dtd">
<svg xmlns="http://www.w3.org/2000/svg" xmlns:xlink="http://www.w3.org/1999/xlink" version="1.1" baseProfile="full" width="265" height="108.5" viewBox="0 0 265.00 108.50" enable-background="new 0 0 265.00 108.50" xml:space="preserve">
	<rect x="-8.18814e-006" y="0" fill="#A80B0B" fill-opacity="1" stroke-width="0.2" stroke-linejoin="round" width="265" height="108.5"/>
	<g>
		<path fill="#FFFFFF" fill-opacity="1" stroke-linejoin="round" d="M 158.965,78.2592L 158.965,88.1231L 156.043,88.1231L 156.043,62.5498L 163.098,62.5498C 165.846,62.5498 167.975,63.2072 169.486,64.5221C 170.997,65.8369 171.752,67.6911 171.752,70.0848C 171.752,72.4823 170.907,74.4441 169.218,75.9701C 167.528,77.4961 165.246,78.2592 162.373,78.2592L 158.965,78.2592 Z M 158.965,65.1071L 158.965,75.7018L 162.099,75.7018C 164.17,75.7018 165.748,75.2242 166.834,74.269C 167.921,73.3138 168.464,71.9648 168.464,70.2218C 168.464,66.812 166.468,65.1071 162.476,65.1071L 158.965,65.1071 Z "/>
		<path fill="#FFFFFF" fill-opacity="1" stroke-linejoin="round" d="M 195.133,88.1231L 191.566,88.1231L 187.284,80.9021C 186.873,80.2285 186.475,79.6558 186.089,79.1839C 185.702,78.712 185.306,78.3258 184.898,78.0251C 184.491,77.7245 184.055,77.5056 183.588,77.3687C 183.122,77.2317 182.594,77.1632 182.004,77.1632L 179.424,77.1632L 179.424,88.1231L 176.501,88.1231L 176.501,62.5498L 184.282,62.5498C 185.424,62.5498 186.476,62.6897 187.439,62.9694C 188.401,63.2491 189.238,63.6734 189.947,64.2423C 190.657,64.8112 191.212,65.5201 191.611,66.3687C 192.011,67.2173 192.211,68.2106 192.211,69.3484C 192.211,70.2389 192.073,71.0552 191.797,71.7973C 191.521,72.5394 191.129,73.2006 190.621,73.781C 190.113,74.3613 189.501,74.856 188.786,75.2651C 188.07,75.6742 187.265,75.993 186.371,76.2213L 186.371,76.2898C 186.816,76.4801 187.204,76.697 187.533,76.9405C 187.862,77.1841 188.175,77.4733 188.472,77.8082C 188.769,78.1431 189.064,78.5218 189.357,78.9441C 189.65,79.3665 189.975,79.8575 190.333,80.4169L 195.133,88.1231 Z M 179.424,65.1071L 179.424,74.6058L 183.591,74.6058C 184.356,74.6058 185.065,74.4898 185.718,74.2576C 186.37,74.0255 186.933,73.6935 187.407,73.2615C 187.881,72.8296 188.252,72.3006 188.52,71.6746C 188.789,71.0486 188.923,70.3455 188.923,69.5653C 188.923,68.1649 188.469,67.0717 187.561,66.2859C 186.654,65.5001 185.342,65.1071 183.625,65.1071L 179.424,65.1071 Z "/>
		<path fill="#FFFFFF" fill-opacity="1" stroke-linejoin="round" d="M 212.304,88.1231L 198.421,88.1231L 198.421,62.5498L 211.573,62.5498L 211.573,65.1071L 201.344,65.1071L 201.344,73.8752L 210.843,73.8752L 210.843,76.4325L 201.344,76.4325L 201.344,85.5658L 212.304,85.5658L 212.304,88.1231 Z "/>
		<path fill="#FFFFFF" fill-opacity="1" stroke-linejoin="round" d="M 215.957,86.9073L 215.957,83.3738C 216.365,83.7696 216.852,84.1264 217.419,84.4441C 217.986,84.7619 218.583,85.0293 219.211,85.2461C 219.839,85.463 220.47,85.6315 221.104,85.7514C 221.737,85.8712 222.322,85.9312 222.859,85.9312C 224.712,85.9312 226.095,85.5801 227.009,84.878C 227.922,84.1758 228.379,83.1664 228.379,81.8497C 228.379,81.1647 228.226,80.5672 227.919,80.0573C 227.613,79.5473 227.191,79.083 226.652,78.6645C 226.114,78.2458 225.476,77.8434 224.74,77.4571C 224.003,77.0709 223.209,76.6665 222.357,76.2441C 221.458,75.7912 220.62,75.3346 219.842,74.8741C 219.064,74.4136 218.386,73.9056 217.81,73.35C 217.233,72.7943 216.78,72.1646 216.451,71.4605C 216.122,70.7565 215.957,69.9307 215.957,68.9831C 215.957,67.8224 216.217,66.813 216.737,65.9549C 217.256,65.0967 217.938,64.3898 218.783,63.8342C 219.628,63.2786 220.591,62.8647 221.672,62.5926C 222.752,62.3205 223.854,62.1845 224.977,62.1845C 227.534,62.1845 229.399,62.5213 230.571,63.1949L 230.571,66.5685C 229.052,65.3507 227.102,64.7418 224.72,64.7418C 224.061,64.7418 223.403,64.8122 222.745,64.953C 222.086,65.0938 221.5,65.3241 220.987,65.6437C 220.473,65.9634 220.054,66.3744 219.731,66.8767C 219.407,67.3791 219.245,67.9917 219.245,68.7148C 219.245,69.3656 219.368,69.9278 219.614,70.4016C 219.859,70.8754 220.222,71.3073 220.701,71.6974C 221.181,72.0875 221.765,72.4662 222.454,72.8334C 223.142,73.2006 223.936,73.6031 224.834,74.0407C 225.759,74.4898 226.634,74.9626 227.46,75.4592C 228.286,75.9558 229.011,76.5067 229.635,77.1118C 230.259,77.7169 230.753,78.3857 231.119,79.1183C 231.484,79.8509 231.667,80.6909 231.667,81.6385C 231.667,82.8943 231.417,83.957 230.916,84.8266C 230.416,85.6962 229.741,86.403 228.893,86.9472C 228.044,87.4914 227.065,87.8844 225.956,88.126C 224.846,88.3676 223.677,88.4885 222.448,88.4885C 222.037,88.4885 221.531,88.4533 220.929,88.3829C 220.328,88.3125 219.714,88.2097 219.086,88.0746C 218.458,87.9395 217.864,87.7721 217.305,87.5723C 216.745,87.3725 216.296,87.1508 215.957,86.9073 Z "/>
		<path fill="#FFFFFF" fill-opacity="1" stroke-linejoin="round" d="M 235.32,86.9073L 235.32,83.3738C 235.727,83.7696 236.214,84.1264 236.781,84.4441C 237.348,84.7619 237.946,85.0293 238.574,85.2461C 239.202,85.463 239.833,85.6315 240.466,85.7514C 241.1,85.8712 241.685,85.9312 242.222,85.9312C 244.075,85.9312 245.458,85.5801 246.371,84.878C 247.285,84.1758 247.741,83.1664 247.741,81.8497C 247.741,81.1647 247.588,80.5672 247.282,80.0573C 246.976,79.5473 246.553,79.083 246.015,78.6645C 245.476,78.2458 244.839,77.8434 244.102,77.4571C 243.366,77.0709 242.572,76.6665 241.719,76.2441C 240.821,75.7912 239.983,75.3346 239.205,74.8741C 238.426,74.4136 237.749,73.9056 237.172,73.35C 236.596,72.7943 236.143,72.1646 235.814,71.4605C 235.485,70.7565 235.32,69.9307 235.32,68.9831C 235.32,67.8224 235.58,66.813 236.099,65.9549C 236.619,65.0967 237.301,64.3898 238.146,63.8342C 238.991,63.2786 239.953,62.8647 241.034,62.5926C 242.115,62.3205 243.217,62.1845 244.339,62.1845C 246.897,62.1845 248.761,62.5213 249.933,63.1949L 249.933,66.5685C 248.415,65.3507 246.465,64.7418 244.082,64.7418C 243.424,64.7418 242.766,64.8122 242.107,64.953C 241.449,65.0938 240.863,65.3241 240.349,65.6437C 239.835,65.9634 239.417,66.3744 239.093,66.8767C 238.77,67.3791 238.608,67.9917 238.608,68.7148C 238.608,69.3656 238.731,69.9278 238.976,70.4016C 239.222,70.8754 239.584,71.3073 240.064,71.6974C 240.543,72.0875 241.127,72.4662 241.816,72.8334C 242.505,73.2006 243.298,73.6031 244.197,74.0407C 245.121,74.4898 245.997,74.9626 246.822,75.4592C 247.648,75.9558 248.373,76.5067 248.997,77.1118C 249.621,77.7169 250.116,78.3857 250.481,79.1183C 250.847,79.8509 251.029,80.6909 251.029,81.6385C 251.029,82.8943 250.779,83.957 250.279,84.8266C 249.778,85.6962 249.104,86.403 248.255,86.9472C 247.407,87.4914 246.428,87.8844 245.318,88.126C 244.209,88.3676 243.04,88.4885 241.811,88.4885C 241.4,88.4885 240.893,88.4533 240.292,88.3829C 239.691,88.3125 239.076,88.2097 238.448,88.0746C 237.82,87.9395 237.227,87.7721 236.667,87.5723C 236.108,87.3725 235.659,87.1508 235.32,86.9073 Z "/>
	</g>
	<g>
		<path fill="#FFFFFF" fill-opacity="1" stroke-linejoin="round" d="M 69.6418,47.9365L 63.7965,47.9365L 63.7965,37.7071L 53.2018,37.7071L 53.2018,47.9365L 47.3565,47.9365L 47.3565,22.3631L 53.2018,22.3631L 53.2018,32.5925L 63.7965,32.5925L 63.7965,22.3631L 69.6418,22.3631L 69.6418,47.9365 Z "/>
		<path fill="#FFFFFF" fill-opacity="1" stroke-linejoin="round" d="M 97.7725,47.9365L 91.4933,47.9365L 89.8493,42.8218L 80.4363,42.8218L 78.8094,47.9365L 72.5645,47.9365L 81.8634,22.3631L 88.6848,22.3631L 97.7725,47.9365 Z M 88.3138,37.7071L 85.6309,29.2303C 85.4216,28.5871 85.2769,27.8203 85.197,26.9298L 85.0543,26.9298C 85.0087,27.6795 84.8583,28.4216 84.6034,29.156L 81.8691,37.7071L 88.3138,37.7071 Z "/>
		<path fill="#FFFFFF" fill-opacity="1" stroke-linejoin="round" d="M 118.414,46.9547C 116.568,47.8528 114.157,48.3018 111.181,48.3018C 107.296,48.3018 104.242,47.1544 102.019,44.8597C 99.797,42.5649 98.6858,39.5091 98.6858,35.6921C 98.6858,31.624 99.9359,28.3245 102.436,25.7938C 104.936,23.2632 108.181,21.9978 112.169,21.9978C 114.639,21.9978 116.72,22.3174 118.414,22.9568L 118.414,28.5738C 116.747,27.5996 114.848,27.1125 112.717,27.1125C 110.376,27.1125 108.488,27.8469 107.051,29.3159C 105.615,30.7848 104.896,32.7751 104.896,35.2868C 104.896,37.6957 105.574,39.6147 106.929,41.0437C 108.283,42.4727 110.108,43.1871 112.403,43.1871C 114.591,43.1871 116.595,42.7 118.414,41.7258L 118.414,46.9547 Z "/>
		<path fill="#FFFFFF" fill-opacity="1" stroke-linejoin="round" d="M 143.987,47.9365L 136.783,47.9365L 129.402,36.8281C 129.262,36.6149 129.037,36.145 128.729,35.4181L 128.643,35.4181L 128.643,47.9365L 122.798,47.9365L 122.798,22.3631L 128.643,22.3631L 128.643,34.4534L 128.729,34.4534C 128.873,34.1223 129.109,33.6466 129.437,33.0263L 136.446,22.3631L 143.257,22.3631L 134.397,34.5618L 143.987,47.9365 Z "/>
		<path fill="#FFFFFF" fill-opacity="1" stroke-linejoin="round" d="M 161.889,47.9365L 146.545,47.9365L 146.545,22.3631L 161.158,22.3631L 161.158,27.1125L 152.39,27.1125L 152.39,32.5925L 160.793,32.5925L 160.793,37.3418L 152.39,37.3418L 152.39,43.1871L 161.889,43.1871L 161.889,47.9365 Z "/>
		<path fill="#FFFFFF" fill-opacity="1" stroke-linejoin="round" d="M 187.136,47.9365L 180.521,47.9365L 176.679,41.3091C 176.393,40.8029 176.118,40.3529 175.854,39.9591C 175.589,39.5652 175.322,39.2274 175.052,38.9458C 174.782,38.6642 174.5,38.4483 174.207,38.2979C 173.914,38.1476 173.596,38.0725 173.254,38.0725L 171.753,38.0725L 171.753,47.9365L 165.907,47.9365L 165.907,22.3631L 174.955,22.3631C 181.101,22.3631 184.174,24.6712 184.174,29.2874C 184.174,30.174 184.04,30.9932 183.771,31.7448C 183.503,32.4964 183.124,33.1738 182.635,33.7769C 182.146,34.3801 181.556,34.9005 180.863,35.3382C 180.17,35.7758 179.4,36.1183 178.551,36.3657L 178.551,36.4399C 178.924,36.5579 179.286,36.751 179.636,37.0193C 179.986,37.2876 180.324,37.6015 180.649,37.9612C 180.974,38.3208 181.286,38.707 181.585,39.1199C 181.884,39.5328 182.155,39.9372 182.399,40.333L 187.136,47.9365 Z M 171.753,26.7471L 171.753,33.6885L 174.099,33.6885C 175.259,33.6885 176.19,33.3403 176.89,32.6438C 177.605,31.936 177.963,31.0607 177.963,30.018C 177.963,27.8374 176.707,26.7471 174.196,26.7471L 171.753,26.7471 Z "/>
		<path fill="#FFFFFF" fill-opacity="1" stroke-linejoin="round" d="M 189.654,47.9365L 189.654,22.3631L 199.004,22.3631C 201.87,22.3631 204.072,22.8845 205.612,23.9272C 207.151,24.9699 207.921,26.4389 207.921,28.334C 207.921,29.7079 207.452,30.9095 206.516,31.9389C 205.58,32.9683 204.383,33.6847 202.926,34.088L 202.926,34.1623C 204.775,34.3868 206.253,35.0594 207.358,36.1801C 208.464,37.3009 209.017,38.6661 209.017,40.2759C 209.017,42.6277 208.172,44.4924 206.482,45.8701C 204.792,47.2477 202.484,47.9365 199.558,47.9365L 189.654,47.9365 Z M 195.499,26.7471L 195.499,32.5925L 197.971,32.5925C 199.132,32.5925 200.045,32.3147 200.711,31.759C 201.377,31.2034 201.71,30.4385 201.71,29.4643C 201.71,27.6529 200.342,26.7471 197.606,26.7471L 195.499,26.7471 Z M 195.499,36.9765L 195.499,43.5525L 198.587,43.5525C 199.904,43.5525 200.936,43.2509 201.684,42.6477C 202.432,42.0445 202.806,41.2216 202.806,40.1788C 202.806,39.1818 202.439,38.3988 201.704,37.8299C 200.97,37.2609 199.942,36.9765 198.622,36.9765L 195.499,36.9765 Z "/>
		<path fill="#FFFFFF" fill-opacity="1" stroke-linejoin="round" d="M 235.321,47.9365L 229.041,47.9365L 227.397,42.8218L 217.984,42.8218L 216.357,47.9365L 210.113,47.9365L 219.411,22.3631L 226.233,22.3631L 235.321,47.9365 Z M 225.862,37.7071L 223.179,29.2303C 222.97,28.5871 222.825,27.8203 222.745,26.9298L 222.602,26.9298C 222.557,27.6795 222.406,28.4216 222.151,29.156L 219.417,37.7071L 225.862,37.7071 Z "/>
		<path fill="#FFFFFF" fill-opacity="1" stroke-linejoin="round" d="M 252.491,22.3631L 244.089,38.8431L 244.089,47.9365L 238.243,47.9365L 238.243,38.9458L 230.206,22.3631L 236.788,22.3631L 240.88,31.9018C 240.949,32.0806 241.143,32.777 241.463,33.991L 241.537,33.991C 241.693,33.1348 241.881,32.4631 242.102,31.976L 246.389,22.3631L 252.491,22.3631 Z "/>
	</g>
</svg>
